<!DOCTYPE svg PUBLIC "-//W3C//DTD SVG 1.1//EN" "http://www.w3.org/Graphics/SVG/1.1/DTD/svg11.dtd">
<!-- Uploaded to: SVG Repo, www.svgrepo.com, Transformed by: SVG Repo Mixer Tools -->
<svg fill="#566813" height="800px" width="800px" version="1.1" id="Layer_1" xmlns="http://www.w3.org/2000/svg" xmlns:xlink="http://www.w3.org/1999/xlink" viewBox="0 0 512 512" xml:space="preserve">
<g id="SVGRepo_bgCarrier" stroke-width="0"/>
<g id="SVGRepo_tracerCarrier" stroke-linecap="round" stroke-linejoin="round"/>
<g id="SVGRepo_iconCarrier"> <g> <g> <path d="M512,135.392c0-47.35-38.521-85.872-85.871-85.872c-29.234,0-55.615,14.549-71.248,37.852 c-60.494-48.591-132.74-52.223-197.76,0.001c-15.633-23.304-42.015-37.853-71.249-37.853C38.521,49.519,0,88.042,0,135.392 c0,39.925,27.845,75.647,68.445,84.082c-9.478,27.91-14.761,56.498-14.761,83.34c0,111.622,89.237,159.667,202.316,159.667 c113.018,0,202.316-48.063,202.316-159.667c0-26.843-5.284-55.431-14.761-83.34C484.26,211.015,512,175.205,512,135.392z M33.391,135.392c0-28.938,23.542-52.48,52.48-52.48c19.736,0,37.35,10.843,46.324,27.762 c-19.172,20.644-37.009,46.731-51.078,77.036C55.575,185.521,33.391,163.882,33.391,135.392z M256,429.089 c-63.088,0-168.924-16.405-168.924-126.276c0-93.525,76.402-219.789,168.927-219.789c92.762,0,168.922,126.736,168.922,219.789 C424.924,412.684,319.088,429.089,256,429.089z M430.881,187.709c-14.091-30.354-31.952-56.446-51.076-77.036 c8.973-16.918,26.586-27.762,46.323-27.762c28.938,0,52.48,23.542,52.48,52.48C478.609,163.888,456.416,185.522,430.881,187.709z"/> </g> </g> <g> <g> <path d="M358.764,285.274c-9.22,0-16.696,7.475-16.696,16.696c0,11.356-5.317,21.652-14.589,28.249 c-9.275,6.598-20.712,8.262-31.385,4.557c-0.007-0.002-0.013-0.003-0.02-0.006c-0.006-0.001-0.01-0.004-0.016-0.006 c-9.306-3.207-16.841-10.262-20.666-19.342c-3.011-7.167-2.697-12.622-2.697-17.37l33.156-38.285 c9.338-10.783,1.67-27.625-12.621-27.625h-74.464c-14.251,0-21.982,16.816-12.621,27.626l33.156,38.283 c0,4.671,0.325,10.18-2.69,17.356c-3.831,9.095-11.365,16.15-20.673,19.357c-0.006,0.002-0.011,0.004-0.017,0.007 s-0.012,0.003-0.018,0.006c-10.669,3.704-22.104,2.046-31.372-4.549c-9.281-6.603-14.603-16.902-14.603-28.257 c0-9.22-7.475-16.696-16.696-16.696s-16.696,7.475-16.696,16.696c0,22.301,10.438,42.517,28.637,55.465 c11.679,8.309,25.54,12.613,39.508,12.615v30.148c0,9.22,7.475,16.696,16.696,16.696h69.239c9.22,0,16.696-7.475,16.696-16.696 v-30.149c13.971-0.002,27.837-4.31,39.522-12.623c18.19-12.941,28.623-33.154,28.623-55.456 C375.46,292.749,367.984,285.274,358.764,285.274z M256.687,265.53v0.001L256,266.322l-0.687-0.792H256.687z M273.924,383.503 h-35.848v-22.238c6.777-3.827,12.836-8.784,17.923-14.632c5.087,5.847,11.147,10.804,17.924,14.632V383.503z"/> </g> </g> <g> <g> <circle cx="176.15" cy="184.52" r="22.086"/> </g> </g> <g> <g> <circle cx="335.16" cy="184.52" r="22.086"/> </g> </g> </g>
</svg>